<?xml version="1.0" encoding="UTF-8" standalone="no"?>
<!DOCTYPE svg PUBLIC "-//W3C//DTD SVG 1.1//EN" "http://www.w3.org/Graphics/SVG/1.1/DTD/svg11.dtd">
<svg width="100%" height="100%" viewBox="0 0 455 402" version="1.1" xmlns="http://www.w3.org/2000/svg" xmlns:xlink="http://www.w3.org/1999/xlink" xml:space="preserve" xmlns:serif="http://www.serif.com/" style="fill-rule:evenodd;clip-rule:evenodd;stroke-linejoin:round;stroke-miterlimit:2;">
    <g transform="matrix(1,0,0,1,-22.7913,-49.342)">
        <g id="Warstwa-1" serif:id="Warstwa 1" transform="matrix(2.90031,0,0,2.90031,-866.851,-822.91)">
            <path id="path179" d="M365.288,438.935C363.018,438.531 360.421,437.084 360.089,436.037C359.745,434.955 361.213,434.458 362.042,435.376C363.039,436.48 364.767,437.112 367.084,437.221C370.135,437.365 371.734,436.885 373.184,435.387C374.548,433.978 374.859,432.948 374.859,429.844L374.859,427.393L374.157,428.095C370.641,431.611 364.613,431.991 360.771,428.939C356.957,425.908 357.231,417.909 361.25,414.954C363.007,413.661 364.611,413.19 367.299,413.176C369.43,413.165 369.86,413.238 371.139,413.829C371.931,414.195 373.092,414.998 373.719,415.613L374.859,416.732L374.859,415.278C374.859,414.175 374.965,413.729 375.298,413.427C375.846,412.932 376.161,412.927 376.642,413.408C376.972,413.737 377.019,414.95 377.019,423.084C377.019,433.287 376.95,433.899 375.595,435.77C374.73,436.964 373.222,438.032 371.619,438.585C370.182,439.081 367.075,439.253 365.288,438.935L365.288,438.935ZM370.34,428.484C371.706,428.046 373.494,426.519 374.208,425.181C374.969,423.756 374.943,420.63 374.156,418.848C372.848,415.889 369.285,414.387 365.485,415.193C361.891,415.956 360.024,418.697 360.27,422.85C360.385,424.788 360.805,425.888 361.867,427.032C363.612,428.912 367.128,429.515 370.34,428.484L370.34,428.484ZM429.478,438.939C427.681,438.658 425.18,437.499 424.66,436.706C423.674,435.2 424.985,434.266 426.406,435.462C427.866,436.691 429.269,437.143 431.635,437.147C433.585,437.15 433.958,437.075 435.235,436.425C436.779,435.638 437.991,434.165 438.453,432.513C438.817,431.212 439.055,427.67 438.779,427.67C438.653,427.67 438.255,427.977 437.896,428.352C436.302,430.016 433.145,430.848 430.287,430.358C427.57,429.892 425.601,428.63 424.403,426.585C423.44,424.94 423.108,422.754 423.103,418.016C423.1,413.772 423.101,413.76 423.683,413.379C424.12,413.092 424.384,413.059 424.733,413.245C425.165,413.477 425.208,413.858 425.32,418.483C425.454,423.977 425.654,424.955 426.969,426.551C428.243,428.096 429.331,428.51 432.118,428.51C434.391,428.51 434.607,428.466 435.712,427.784C437.126,426.909 438.118,425.403 438.455,423.617C438.589,422.906 438.699,420.412 438.699,418.075C438.699,414.262 438.744,413.784 439.138,413.427C439.754,412.87 440.304,412.933 440.749,413.612C441.085,414.124 441.121,415.282 441.051,423.152C440.976,431.637 440.945,432.176 440.461,433.364C438.689,437.712 434.672,439.751 429.478,438.939L429.478,438.939ZM330.027,430.502C329.614,430.09 329.614,413.731 330.027,413.318C330.485,412.86 331.137,412.982 331.543,413.602C332.091,414.438 331.976,430.204 331.419,430.556C330.925,430.868 330.371,430.846 330.027,430.502L330.027,430.502ZM338.139,430.556C337.833,430.362 337.769,429.112 337.71,422.197C337.645,414.48 337.665,414.037 338.102,413.497C338.51,412.993 338.635,412.96 339.191,413.214C339.767,413.476 339.819,413.619 339.819,414.945C339.819,415.74 339.873,416.39 339.939,416.39C340.005,416.39 340.472,415.977 340.977,415.472C343.272,413.177 347.293,412.457 350.376,413.788C353.38,415.086 353.974,416.922 353.977,424.917C353.979,428.881 353.913,429.817 353.605,430.257C353.192,430.846 352.494,430.954 352.107,430.489C351.953,430.303 351.827,427.881 351.778,424.189C351.701,418.306 351.687,418.17 351.099,417.123C350.212,415.544 349.237,415.069 346.899,415.076C345.408,415.082 344.696,415.209 343.71,415.65C342.255,416.3 340.684,417.938 340.265,419.241C340.105,419.736 339.94,422.277 339.881,425.15C339.82,428.105 339.674,430.314 339.528,430.49C339.235,430.845 338.641,430.873 338.139,430.555L338.139,430.556ZM386.421,430.349C384.848,429.786 383.469,428.48 382.734,426.856C382.21,425.7 382.175,425.296 382.104,419.722C382.038,414.512 382.075,413.768 382.421,413.422C382.914,412.929 383.359,412.925 383.842,413.408C384.162,413.729 384.219,414.598 384.219,419.2C384.219,425.289 384.359,426.093 385.65,427.45C386.694,428.546 388.122,428.98 390.032,428.782C392.641,428.512 394.537,427.156 395.523,424.856C395.919,423.931 395.98,423.171 395.983,419.071C395.985,414.158 396.144,413.241 397.017,413.073C398.114,412.862 398.139,413.062 398.139,421.911C398.139,428.91 398.083,430.299 397.791,430.541C396.896,431.284 395.989,430.22 395.983,428.422L395.98,427.373L395.052,428.33C392.99,430.454 389.196,431.342 386.421,430.35L386.421,430.349ZM451.539,430.452C448.832,429.781 446.767,428.078 445.85,425.76C445.431,424.699 445.322,423.922 445.314,421.91C445.306,419.625 445.369,419.249 446,417.876C447.63,414.334 451.359,412.647 456.213,413.255C460.764,413.826 463.419,416.206 463.419,419.715C463.419,421.412 462.879,422.251 461.548,422.621C461.038,422.762 457.828,422.868 454.014,422.869L447.369,422.87L447.496,423.77C447.952,426.999 450.609,428.87 454.739,428.87C456.655,428.87 458.366,428.375 460.06,427.329C461.578,426.392 462.118,426.321 462.547,427.002C462.754,427.331 462.672,427.553 462.135,428.113C460.063,430.275 455.178,431.354 451.539,430.452L451.539,430.452ZM460.971,420.662C461.659,419.974 461.088,417.783 459.969,416.819C457.718,414.879 453.374,414.415 450.518,415.81C448.98,416.562 447.95,417.952 447.631,419.706L447.405,420.95L454.044,420.95C458.888,420.95 460.761,420.872 460.971,420.662L460.971,420.662ZM310.98,430.324C309.827,430.099 308.946,429.503 308.367,428.557C307.917,427.822 307.901,427.341 307.959,416.87L308.019,405.95L308.799,405.875C309.454,405.812 309.618,405.901 309.819,406.431C309.965,406.815 310.059,411.007 310.059,417.142C310.059,423.211 310.152,427.395 310.292,427.658C310.421,427.898 310.718,428.186 310.952,428.3C311.187,428.413 314.349,428.56 317.979,428.628L324.579,428.75L324.655,429.41C324.716,429.937 324.603,430.119 324.099,430.31C323.385,430.582 312.362,430.593 310.98,430.324L310.98,430.324ZM406.952,430.318C405.626,430.061 404.91,429.608 404.311,428.644C403.785,427.799 403.779,427.68 403.779,418.309C403.779,409.207 403.799,408.796 404.268,407.998C404.536,407.54 405.13,406.946 405.588,406.678C406.358,406.225 406.89,406.184 412.808,406.115C418.457,406.05 419.242,406.086 419.588,406.432C420.076,406.92 420.078,407.135 419.602,407.612C419.279,407.935 418.362,407.989 413.255,407.989C407.292,407.989 407.285,407.99 406.613,408.568L405.939,409.147L405.939,416.989L411.339,417.051C416.073,417.106 416.776,417.164 417.039,417.517C417.428,418.041 417.418,418.196 416.962,418.652C416.642,418.972 415.776,419.029 411.202,419.029L405.819,419.029L405.833,422.689C405.848,426.716 406.087,427.849 407.02,428.319C407.456,428.54 409.327,428.623 413.89,428.626C419.076,428.628 420.211,428.689 420.45,428.978C420.848,429.456 420.556,430.227 419.912,430.4C419.162,430.601 408.051,430.531 406.952,430.318L406.952,430.318ZM329.787,408.769C329.034,408.118 328.942,407.431 329.512,406.707C330.125,405.928 331.206,405.856 331.899,406.549C332.536,407.186 332.506,408.026 331.824,408.667C331.152,409.298 330.44,409.334 329.787,408.769L329.787,408.769ZM381.699,398.719C362.782,396.494 342.329,386.243 329.045,372.329C323.711,366.743 317.941,358.542 315.827,353.541C315.285,352.261 315.314,352.301 317.332,355.669C329.276,375.594 351.706,389.993 377.019,393.984C379.173,394.324 381.177,394.419 386.139,394.42C392.568,394.422 393.644,394.328 398.859,393.318C413.016,390.575 427.354,382.604 438.909,371.053C441.616,368.347 441.639,368.314 441.066,368.014C439.854,367.379 437.269,366.687 435.49,366.521L433.64,366.349L445.104,361.143C451.409,358.28 456.605,355.975 456.651,356.021C456.697,356.067 455.514,361.659 454.022,368.447L451.308,380.79L450.814,379.089C450.296,377.307 449.156,374.986 448.226,373.822L447.677,373.135L445.408,375.227C430.231,389.217 413.42,397.197 395.619,398.862C392.014,399.199 385.187,399.128 381.699,398.718L381.699,398.719ZM382.059,386.615C367.956,385.322 355.522,375.509 350.909,362.029C348.354,354.564 348.343,345.267 350.881,338.389C354.981,327.281 363.265,319.153 374.226,315.486C378.291,314.125 380.557,313.793 385.658,313.809C392.145,313.829 395.922,314.708 401.618,317.523C412.369,322.835 419.932,333.244 421.662,345.109C422.004,347.453 421.999,353.141 421.654,355.429C419.873,367.195 412.588,377.323 402.007,382.742C397.383,385.11 393.727,386.162 388.506,386.624C385.507,386.889 385.041,386.888 382.06,386.615L382.059,386.615ZM389.379,381.091C392.981,380.663 396.136,379.722 399.279,378.14C401.338,377.102 404.864,374.717 406.328,373.369L407.436,372.349L402.008,363.171C399.022,358.122 396.522,353.991 396.451,353.991C396.319,353.989 380.619,380.723 380.619,380.949C380.619,381.365 386.298,381.457 389.379,381.091L389.379,381.091ZM382.766,370.827C385.697,365.766 388.05,361.58 387.995,361.525C387.94,361.47 380.807,361.453 372.143,361.487L356.39,361.549L357.698,364.189C358.417,365.641 359.703,367.755 360.557,368.887C363.502,372.795 368.105,376.641 371.927,378.39C373.846,379.268 377.109,380.356 377.289,380.178C377.371,380.096 379.836,375.888 382.766,370.827L382.766,370.827ZM410.613,368.68C412.874,365.616 415.209,360.058 416.053,355.734C416.548,353.193 416.598,347.437 416.151,344.329L415.849,342.229L394.091,342.229L398.347,349.849C400.688,354.04 404.158,360.25 406.057,363.649C407.956,367.048 409.57,369.825 409.644,369.82C409.718,369.814 410.154,369.302 410.613,368.68ZM389.551,358.475C391.44,357.548 392.977,355.979 393.895,354.043C394.587,352.58 394.659,352.215 394.659,350.144C394.659,348.048 394.594,347.727 393.873,346.263C392.248,342.961 389.387,341.196 385.659,341.196C381.931,341.196 379.07,342.961 377.445,346.263C376.724,347.727 376.659,348.047 376.659,350.144C376.659,352.019 376.758,352.645 377.21,353.629C378.392,356.203 380.061,357.843 382.487,358.815C384.277,359.532 387.738,359.366 389.551,358.475ZM384.968,357.149C384.556,356.572 383.499,354.204 383.499,353.86C383.499,353.799 384.471,353.749 385.659,353.749C386.847,353.749 387.819,353.79 387.819,353.839C387.819,354.654 386.111,357.829 385.672,357.829C385.551,357.829 385.234,357.523 384.968,357.15L384.968,357.149ZM382.299,357.147C380.815,356.4 380.234,355.929 379.444,354.827L378.669,353.749L381.967,353.749L382.624,355.369C382.985,356.26 383.341,357.124 383.415,357.289C383.596,357.691 383.306,357.654 382.299,357.147L382.299,357.147ZM387.903,357.289C387.977,357.124 388.333,356.26 388.695,355.369L389.351,353.749L392.652,353.749L392.159,354.441C391.473,355.404 390.14,356.537 389.022,357.108C387.924,357.668 387.717,357.701 387.903,357.289L387.903,357.289ZM378.09,351.759C378.014,351.457 377.985,350.566 378.026,349.779L378.099,348.349L381.768,348.21L381.751,352.309L379.991,352.309C378.355,352.309 378.22,352.27 378.092,351.759L378.09,351.759ZM383.169,351.559C382.981,350.62 382.982,349.473 383.17,348.769C383.308,348.256 383.431,348.229 385.661,348.229C388.307,348.229 388.301,348.223 388.296,350.109C388.29,352.331 388.316,352.309 385.661,352.309L383.319,352.309L383.169,351.559ZM389.605,350.26L389.619,348.211L393.219,348.349L393.293,349.779C393.419,352.245 393.37,352.309 391.34,352.309L389.591,352.309L389.605,350.26L389.605,350.26ZM379.106,346.044C379.713,344.997 381.372,343.584 382.525,343.131C383.63,342.697 383.638,342.705 383.117,343.713C382.907,344.119 382.579,344.978 382.388,345.621L382.04,346.79L378.672,346.79L379.106,346.044ZM383.499,346.679C383.499,346.256 384.563,343.863 385.035,343.223L385.612,342.441L386.224,343.242C386.877,344.099 387.805,345.995 387.814,346.49C387.817,346.709 387.23,346.79 385.659,346.79C384.471,346.79 383.499,346.74 383.499,346.679L383.499,346.679ZM388.93,345.621C388.739,344.978 388.411,344.119 388.201,343.713C387.68,342.705 387.688,342.697 388.793,343.131C389.946,343.584 391.605,344.997 392.213,346.044L392.646,346.79L389.278,346.79L388.93,345.621ZM376.779,358.074C376.779,357.844 361.795,331.002 361.513,330.728C361.076,330.301 357.844,335.427 356.64,338.456C355.763,340.666 355.038,343.386 354.707,345.71C354.218,349.153 354.494,355.909 355.2,357.766L355.407,358.31L366.093,358.31C372.941,358.31 376.779,358.225 376.779,358.074L376.779,358.074ZM382.749,332.67C386.989,325.366 390.459,319.345 390.459,319.29C390.459,319.022 382.192,319.229 380.236,319.546C374.771,320.433 369.156,323.157 364.539,327.163L363.51,328.055L366.831,333.643C368.658,336.716 371.128,340.875 372.321,342.886C373.988,345.693 374.554,346.473 374.765,346.246C374.915,346.083 378.508,339.974 382.749,332.67L382.749,332.67ZM413.855,337.286C410.933,330.873 405.562,325.313 399.217,322.133C397.318,321.181 393.92,319.961 393.733,320.165C393.543,320.373 383.522,338.279 383.367,338.69C383.216,339.088 384.057,339.11 398.947,339.11L414.687,339.11L413.855,337.286ZM306.749,344.332C306.805,344.166 308.894,337.262 311.392,328.991L315.932,313.951L316.332,316.031C316.552,317.174 316.966,318.704 317.252,319.43C317.887,321.041 319.44,323.75 319.729,323.75C319.845,323.75 321.038,322.904 322.379,321.871C346.72,303.119 374.324,296.597 400.899,303.321C420.811,308.358 439.951,320.073 458.735,338.719C461.424,341.389 462.547,342.604 461.285,341.479C438.507,321.178 417.655,310.263 395.499,307.043C392.031,306.539 381.467,306.331 377.825,306.694C362.02,308.272 346.991,314.51 333.198,325.218C329.873,327.798 326.899,330.282 326.875,330.497C326.85,330.739 329.513,332.055 331.171,332.619C332.025,332.908 333.618,333.265 334.712,333.412L336.7,333.678L322.96,338.669C315.402,341.415 308.64,343.88 307.933,344.147C307.05,344.482 306.678,344.54 306.749,344.332L306.749,344.332Z" style="fill-rule:nonzero;"/>
        </g>
    </g>
</svg>
