<?xml version="1.0" encoding="UTF-8" standalone="no"?>
<!DOCTYPE svg PUBLIC "-//W3C//DTD SVG 1.1//EN" "http://www.w3.org/Graphics/SVG/1.1/DTD/svg11.dtd">
<svg width="100%" height="100%" viewBox="0 0 450 286" version="1.1" xmlns="http://www.w3.org/2000/svg" xmlns:xlink="http://www.w3.org/1999/xlink" xml:space="preserve" xmlns:serif="http://www.serif.com/" style="fill-rule:evenodd;clip-rule:evenodd;stroke-linejoin:round;stroke-miterlimit:2;">
    <g transform="matrix(1,0,0,1,-2.63654,-58.4034)">
        <g transform="matrix(2.90031,0,0,2.90031,-887.006,-813.848)">
            <g id="Warstwa-1" serif:id="Warstwa 1">
                <path id="path179" d="M381.699,398.719C362.782,396.494 342.329,386.243 329.045,372.329C323.711,366.743 317.941,358.542 315.827,353.541C315.285,352.261 315.314,352.301 317.332,355.669C329.276,375.594 351.706,389.993 377.019,393.984C379.173,394.324 381.177,394.419 386.139,394.42C392.568,394.422 393.644,394.328 398.859,393.318C413.016,390.575 427.354,382.604 438.909,371.053C441.616,368.347 441.639,368.314 441.066,368.014C439.854,367.379 437.269,366.687 435.49,366.521L433.64,366.349L445.104,361.143C451.409,358.28 456.605,355.975 456.651,356.021C456.697,356.067 455.514,361.659 454.022,368.447L451.308,380.79L450.814,379.089C450.296,377.307 449.156,374.986 448.226,373.822L447.677,373.135L445.408,375.227C430.231,389.217 413.42,397.197 395.619,398.862C392.014,399.199 385.187,399.128 381.699,398.718L381.699,398.719ZM382.059,386.615C367.956,385.322 355.522,375.509 350.909,362.029C348.354,354.564 348.343,345.267 350.881,338.389C354.981,327.281 363.265,319.153 374.226,315.486C378.291,314.125 380.557,313.793 385.658,313.809C392.145,313.829 395.922,314.708 401.618,317.523C412.369,322.835 419.932,333.244 421.662,345.109C422.004,347.453 421.999,353.141 421.654,355.429C419.873,367.195 412.588,377.323 402.007,382.742C397.383,385.11 393.727,386.162 388.506,386.624C385.507,386.889 385.041,386.888 382.06,386.615L382.059,386.615ZM389.379,381.091C392.981,380.663 396.136,379.722 399.279,378.14C401.338,377.102 404.864,374.717 406.328,373.369L407.436,372.349L402.008,363.171C399.022,358.122 396.522,353.991 396.451,353.991C396.319,353.989 380.619,380.723 380.619,380.949C380.619,381.365 386.298,381.457 389.379,381.091ZM382.766,370.827C385.697,365.766 388.05,361.58 387.995,361.525C387.94,361.47 380.807,361.453 372.143,361.487L356.39,361.549L357.698,364.189C358.417,365.641 359.703,367.755 360.557,368.887C363.502,372.795 368.105,376.641 371.927,378.39C373.846,379.268 377.109,380.356 377.289,380.178C377.371,380.096 379.836,375.888 382.766,370.827ZM410.613,368.68C412.874,365.616 415.209,360.058 416.053,355.734C416.548,353.193 416.598,347.437 416.151,344.329L415.849,342.229L394.091,342.229L398.347,349.849C400.688,354.04 404.158,360.25 406.057,363.649C407.956,367.048 409.57,369.825 409.644,369.82C409.718,369.814 410.154,369.302 410.613,368.68ZM389.551,358.475C391.44,357.548 392.977,355.979 393.895,354.043C394.587,352.58 394.659,352.215 394.659,350.144C394.659,348.048 394.594,347.727 393.873,346.263C392.248,342.961 389.387,341.196 385.659,341.196C381.931,341.196 379.07,342.961 377.445,346.263C376.724,347.727 376.659,348.047 376.659,350.144C376.659,352.019 376.758,352.645 377.21,353.629C378.392,356.203 380.061,357.843 382.487,358.815C384.277,359.532 387.738,359.366 389.551,358.475ZM384.968,357.149C384.556,356.572 383.499,354.204 383.499,353.86C383.499,353.799 384.471,353.749 385.659,353.749C386.847,353.749 387.819,353.79 387.819,353.839C387.819,354.654 386.111,357.829 385.672,357.829C385.551,357.829 385.234,357.523 384.968,357.15L384.968,357.149ZM382.299,357.147C380.815,356.4 380.234,355.929 379.444,354.827L378.669,353.749L381.967,353.749L382.624,355.369C382.985,356.26 383.341,357.124 383.415,357.289C383.596,357.691 383.306,357.654 382.299,357.147ZM387.903,357.289C387.977,357.124 388.333,356.26 388.695,355.369L389.351,353.749L392.652,353.749L392.159,354.441C391.473,355.404 390.14,356.537 389.022,357.108C387.924,357.668 387.717,357.701 387.903,357.289ZM378.09,351.759C378.014,351.457 377.985,350.566 378.026,349.779L378.099,348.349L381.768,348.21L381.751,352.309L379.991,352.309C378.355,352.309 378.22,352.27 378.092,351.759L378.09,351.759ZM383.169,351.559C382.981,350.62 382.982,349.473 383.17,348.769C383.308,348.256 383.431,348.229 385.661,348.229C388.307,348.229 388.301,348.223 388.296,350.109C388.29,352.331 388.316,352.309 385.661,352.309L383.319,352.309L383.169,351.559ZM389.591,352.309L389.619,348.211L393.219,348.349L393.293,349.779C393.419,352.245 393.37,352.309 391.34,352.309L389.591,352.309ZM379.106,346.044C379.713,344.997 381.372,343.584 382.525,343.131C383.63,342.697 383.638,342.705 383.117,343.713C382.907,344.119 382.579,344.978 382.388,345.621L382.04,346.79L378.672,346.79L379.106,346.044ZM383.499,346.679C383.499,346.256 384.563,343.863 385.035,343.223L385.612,342.441L386.224,343.242C386.877,344.099 387.805,345.995 387.814,346.49C387.817,346.709 387.23,346.79 385.659,346.79C384.471,346.79 383.499,346.74 383.499,346.679ZM388.93,345.621C388.739,344.978 388.411,344.119 388.201,343.713C387.68,342.705 387.688,342.697 388.793,343.131C389.946,343.584 391.605,344.997 392.213,346.044L392.646,346.79L389.278,346.79L388.93,345.621ZM376.779,358.074C376.779,357.844 361.795,331.002 361.513,330.728C361.076,330.301 357.844,335.427 356.64,338.456C355.763,340.666 355.038,343.386 354.707,345.71C354.218,349.153 354.494,355.909 355.2,357.766L355.407,358.31L366.093,358.31C372.941,358.31 376.779,358.225 376.779,358.074ZM382.749,332.67C386.989,325.366 390.459,319.345 390.459,319.29C390.459,319.022 382.192,319.229 380.236,319.546C374.771,320.433 369.156,323.157 364.539,327.163L363.51,328.055L366.831,333.643C368.658,336.716 371.128,340.875 372.321,342.886C373.988,345.693 374.554,346.473 374.765,346.246C374.915,346.083 378.508,339.974 382.749,332.67ZM413.855,337.286C410.933,330.873 405.562,325.313 399.217,322.133C397.318,321.181 393.92,319.961 393.733,320.165C393.543,320.373 383.522,338.279 383.367,338.69C383.216,339.088 384.057,339.11 398.947,339.11L414.687,339.11L413.855,337.286ZM306.749,344.332C306.805,344.166 308.894,337.262 311.392,328.991L315.932,313.951L316.332,316.031C316.552,317.174 316.966,318.704 317.252,319.43C317.887,321.041 319.44,323.75 319.729,323.75C319.845,323.75 321.038,322.904 322.379,321.871C346.72,303.119 374.324,296.597 400.899,303.321C420.811,308.358 439.951,320.073 458.735,338.719C461.424,341.389 462.547,342.604 461.285,341.479C438.507,321.178 417.655,310.263 395.499,307.043C392.031,306.539 381.467,306.331 377.825,306.694C362.02,308.272 346.991,314.51 333.198,325.218C329.873,327.798 326.899,330.282 326.875,330.497C326.85,330.739 329.513,332.055 331.171,332.619C332.025,332.908 333.618,333.265 334.712,333.412L336.7,333.678L322.96,338.669C315.402,341.415 308.64,343.88 307.933,344.147C307.05,344.482 306.678,344.54 306.749,344.332Z" style="fill-rule:nonzero;"/>
            </g>
        </g>
    </g>
</svg>
